<?xml version="1.0" standalone="no"?>
<!DOCTYPE svg PUBLIC "-//W3C//DTD SVG 20010904//EN"
 "http://www.w3.org/TR/2001/REC-SVG-20010904/DTD/svg10.dtd">
<svg version="1.0" xmlns="http://www.w3.org/2000/svg"
 width="828.000000pt" height="828.000000pt" viewBox="0 0 828.000000 828.000000"
 preserveAspectRatio="xMidYMid meet">
<metadata>
Created by potrace 1.11, written by Peter Selinger 2001-2013
</metadata>
<g transform="translate(0.000000,828.000000) scale(0.100000,-0.100000)"
fill="#000000" stroke="none">
<path d="M5010 5100 l0 -1390 310 0 310 0 0 330 0 330 300 0 300 0 0 265 0
265 -300 0 -300 0 0 195 0 195 300 0 300 0 0 270 0 270 -300 0 -300 0 0 330 0
330 -310 0 -310 0 0 -1390z"/>
<path d="M2140 5100 l0 -1170 383 0 c482 0 1333 16 1582 30 243 13 568 41 577
49 3 3 -6 119 -21 256 l-27 250 -49 -2 c-28 -1 -140 -9 -250 -17 -307 -24
-577 -35 -1098 -42 l-477 -7 0 196 0 197 765 0 765 0 0 260 0 260 -765 0 -765
0 0 195 0 195 810 0 810 0 0 260 0 260 -1120 0 -1120 0 0 -1170z"/>
<path d="M4055 3674 c-321 -24 -551 -81 -759 -185 -258 -130 -424 -322 -471
-545 -20 -94 -20 -394 0 -489 70 -331 400 -586 885 -684 181 -36 282 -45 520
-45 245 0 379 13 560 55 427 98 731 326 823 614 20 64 22 90 22 310 0 235 -1
241 -27 313 -123 339 -487 564 -1028 637 -105 15 -431 26 -525 19z m350 -514
c181 -21 345 -77 462 -159 124 -87 162 -159 163 -302 0 -87 -3 -101 -31 -157
-92 -186 -407 -312 -775 -312 -361 0 -678 128 -777 314 -19 35 -22 57 -22 156
0 109 1 117 29 164 54 90 140 159 266 212 191 80 442 111 685 84z"/>
</g>
</svg>
